<mxfile host="app.diagrams.net" modified="2023-07-17T07:35:21.911Z" agent="Mozilla/5.0 (Macintosh; Intel Mac OS X 10_15_7) AppleWebKit/537.36 (KHTML, like Gecko) Chrome/114.0.0.0 Safari/537.36 Edg/114.0.1823.43" etag="ZCg-L8RPDBsZ3SWi6f4c" version="21.1.7" type="github">
  <diagram name="Page-1" id="TCTxuROuC0lEC1z-7_3C">
    <mxGraphModel dx="788" dy="747" grid="1" gridSize="10" guides="1" tooltips="1" connect="1" arrows="1" fold="1" page="1" pageScale="1" pageWidth="850" pageHeight="1100" math="0" shadow="0">
      <root>
        <mxCell id="0" />
        <mxCell id="1" parent="0" />
        <mxCell id="MBnRCO6kB4gPyaV97329-8" value="" style="edgeStyle=orthogonalEdgeStyle;rounded=0;orthogonalLoop=1;jettySize=auto;html=1;" edge="1" parent="1" source="MBnRCO6kB4gPyaV97329-3" target="MBnRCO6kB4gPyaV97329-7">
          <mxGeometry relative="1" as="geometry" />
        </mxCell>
        <mxCell id="MBnRCO6kB4gPyaV97329-3" value="create client ( i.e. Infinity ) - at &quot;OnBoarding&quot; page" style="rounded=1;whiteSpace=wrap;html=1;fillColor=#ffe6cc;strokeColor=#d79b00;" vertex="1" parent="1">
          <mxGeometry x="210" y="180" width="120" height="60" as="geometry" />
        </mxCell>
        <mxCell id="MBnRCO6kB4gPyaV97329-11" value="" style="edgeStyle=orthogonalEdgeStyle;rounded=0;orthogonalLoop=1;jettySize=auto;html=1;" edge="1" parent="1" source="MBnRCO6kB4gPyaV97329-4" target="MBnRCO6kB4gPyaV97329-10">
          <mxGeometry relative="1" as="geometry" />
        </mxCell>
        <mxCell id="MBnRCO6kB4gPyaV97329-4" value="Approved the newly created client - To enable it in the schedule maintenance page" style="rounded=1;whiteSpace=wrap;html=1;fillColor=#ffe6cc;strokeColor=#d79b00;" vertex="1" parent="1">
          <mxGeometry x="590" y="170" width="140" height="80" as="geometry" />
        </mxCell>
        <mxCell id="MBnRCO6kB4gPyaV97329-9" value="" style="edgeStyle=orthogonalEdgeStyle;rounded=0;orthogonalLoop=1;jettySize=auto;html=1;" edge="1" parent="1" source="MBnRCO6kB4gPyaV97329-7" target="MBnRCO6kB4gPyaV97329-4">
          <mxGeometry relative="1" as="geometry" />
        </mxCell>
        <mxCell id="MBnRCO6kB4gPyaV97329-7" value="The newly created client appears on the list" style="rounded=0;whiteSpace=wrap;html=1;" vertex="1" parent="1">
          <mxGeometry x="400" y="180" width="120" height="60" as="geometry" />
        </mxCell>
        <mxCell id="MBnRCO6kB4gPyaV97329-13" value="" style="edgeStyle=orthogonalEdgeStyle;rounded=0;orthogonalLoop=1;jettySize=auto;html=1;" edge="1" parent="1" source="MBnRCO6kB4gPyaV97329-10" target="MBnRCO6kB4gPyaV97329-12">
          <mxGeometry relative="1" as="geometry" />
        </mxCell>
        <mxCell id="MBnRCO6kB4gPyaV97329-10" value="Create applications ( i.e jarvis, 1up, payment ) - at &quot;Application and Module&quot; page" style="rounded=1;whiteSpace=wrap;html=1;fillColor=#ffe6cc;strokeColor=#d79b00;" vertex="1" parent="1">
          <mxGeometry x="585" y="330" width="150" height="80" as="geometry" />
        </mxCell>
        <mxCell id="MBnRCO6kB4gPyaV97329-15" value="" style="edgeStyle=orthogonalEdgeStyle;rounded=0;orthogonalLoop=1;jettySize=auto;html=1;" edge="1" parent="1" source="MBnRCO6kB4gPyaV97329-12" target="MBnRCO6kB4gPyaV97329-14">
          <mxGeometry relative="1" as="geometry" />
        </mxCell>
        <mxCell id="MBnRCO6kB4gPyaV97329-12" value="Select &quot;modules&quot; option on the newly created applications to add corresponding modules to each applications" style="rounded=1;whiteSpace=wrap;html=1;direction=south;fillColor=#ffe6cc;strokeColor=#d79b00;" vertex="1" parent="1">
          <mxGeometry x="330" y="330" width="170" height="80" as="geometry" />
        </mxCell>
        <mxCell id="MBnRCO6kB4gPyaV97329-17" value="" style="edgeStyle=orthogonalEdgeStyle;rounded=0;orthogonalLoop=1;jettySize=auto;html=1;" edge="1" parent="1" source="MBnRCO6kB4gPyaV97329-14" target="MBnRCO6kB4gPyaV97329-16">
          <mxGeometry relative="1" as="geometry" />
        </mxCell>
        <mxCell id="MBnRCO6kB4gPyaV97329-14" value="At &quot;OnBoarding&quot; page, click &quot;Application&quot; button of the corresponding client" style="rounded=1;whiteSpace=wrap;html=1;fillColor=#ffe6cc;strokeColor=#d79b00;" vertex="1" parent="1">
          <mxGeometry x="130" y="330" width="150" height="80" as="geometry" />
        </mxCell>
        <mxCell id="MBnRCO6kB4gPyaV97329-19" value="" style="edgeStyle=orthogonalEdgeStyle;rounded=0;orthogonalLoop=1;jettySize=auto;html=1;" edge="1" parent="1" source="MBnRCO6kB4gPyaV97329-16" target="MBnRCO6kB4gPyaV97329-18">
          <mxGeometry relative="1" as="geometry" />
        </mxCell>
        <mxCell id="MBnRCO6kB4gPyaV97329-16" value="Client-application page is shown, enable the user to bind applications for selected client" style="rounded=0;whiteSpace=wrap;html=1;" vertex="1" parent="1">
          <mxGeometry x="130" y="450" width="150" height="80" as="geometry" />
        </mxCell>
        <mxCell id="MBnRCO6kB4gPyaV97329-25" value="" style="edgeStyle=orthogonalEdgeStyle;rounded=0;orthogonalLoop=1;jettySize=auto;html=1;" edge="1" parent="1" source="MBnRCO6kB4gPyaV97329-18" target="MBnRCO6kB4gPyaV97329-24">
          <mxGeometry relative="1" as="geometry" />
        </mxCell>
        <mxCell id="MBnRCO6kB4gPyaV97329-18" value="User select the desired applications for the selected client and click &quot;Submit&quot;" style="rounded=1;whiteSpace=wrap;html=1;fillColor=#ffe6cc;strokeColor=#d79b00;" vertex="1" parent="1">
          <mxGeometry x="330" y="450" width="170" height="80" as="geometry" />
        </mxCell>
        <mxCell id="MBnRCO6kB4gPyaV97329-28" value="" style="edgeStyle=orthogonalEdgeStyle;rounded=0;orthogonalLoop=1;jettySize=auto;html=1;" edge="1" parent="1" source="MBnRCO6kB4gPyaV97329-22" target="MBnRCO6kB4gPyaV97329-27">
          <mxGeometry relative="1" as="geometry" />
        </mxCell>
        <mxCell id="MBnRCO6kB4gPyaV97329-22" value="User create schedule maintenances for desired client, application or module" style="rounded=1;whiteSpace=wrap;html=1;fillColor=#ffe6cc;strokeColor=#d79b00;" vertex="1" parent="1">
          <mxGeometry x="590" y="580" width="140" height="80" as="geometry" />
        </mxCell>
        <mxCell id="MBnRCO6kB4gPyaV97329-26" value="" style="edgeStyle=orthogonalEdgeStyle;rounded=0;orthogonalLoop=1;jettySize=auto;html=1;" edge="1" parent="1" source="MBnRCO6kB4gPyaV97329-24" target="MBnRCO6kB4gPyaV97329-22">
          <mxGeometry relative="1" as="geometry" />
        </mxCell>
        <mxCell id="MBnRCO6kB4gPyaV97329-24" value="Navigate to the &quot;Schedule Maintenance&quot; page" style="rounded=0;whiteSpace=wrap;html=1;" vertex="1" parent="1">
          <mxGeometry x="600" y="460" width="120" height="60" as="geometry" />
        </mxCell>
        <mxCell id="MBnRCO6kB4gPyaV97329-32" value="" style="edgeStyle=orthogonalEdgeStyle;rounded=0;orthogonalLoop=1;jettySize=auto;html=1;" edge="1" parent="1" source="MBnRCO6kB4gPyaV97329-27" target="MBnRCO6kB4gPyaV97329-31">
          <mxGeometry relative="1" as="geometry" />
        </mxCell>
        <mxCell id="MBnRCO6kB4gPyaV97329-27" value="User search and approved the newly created schedule maintenance" style="rounded=1;whiteSpace=wrap;html=1;fillColor=#ffe6cc;strokeColor=#d79b00;" vertex="1" parent="1">
          <mxGeometry x="330" y="580" width="170" height="80" as="geometry" />
        </mxCell>
        <mxCell id="MBnRCO6kB4gPyaV97329-30" value="" style="edgeStyle=orthogonalEdgeStyle;rounded=0;orthogonalLoop=1;jettySize=auto;html=1;" edge="1" parent="1" source="MBnRCO6kB4gPyaV97329-29" target="MBnRCO6kB4gPyaV97329-3">
          <mxGeometry relative="1" as="geometry" />
        </mxCell>
        <mxCell id="MBnRCO6kB4gPyaV97329-29" value="PitStop admin portal" style="shape=step;perimeter=stepPerimeter;whiteSpace=wrap;html=1;fixedSize=1;" vertex="1" parent="1">
          <mxGeometry y="170" width="160" height="80" as="geometry" />
        </mxCell>
        <mxCell id="MBnRCO6kB4gPyaV97329-31" value="The schedule will &lt;br&gt;appears on the &lt;br&gt;public API" style="shape=dataStorage;whiteSpace=wrap;html=1;fixedSize=1;" vertex="1" parent="1">
          <mxGeometry x="130" y="580" width="150" height="80" as="geometry" />
        </mxCell>
      </root>
    </mxGraphModel>
  </diagram>
</mxfile>
